<svg width="24" height="24" viewBox="0 0 24 24" fill="none" xmlns="http://www.w3.org/2000/svg">
<rect x="4.23529" width="19.7647" height="19.7647" rx="2" fill="#FAD02C"/>
<rect x="2.11768" y="2.11768" width="19.7647" height="19.7647" rx="2" fill="#333652"/>
<rect y="4.23529" width="19.7647" height="19.7647" rx="2" fill="#E9EAEC"/>
<g clip-path="url(#clip0)">
<path d="M13.1177 19.9412V18.6471C13.1177 17.9606 12.845 17.3023 12.3596 16.8169C11.8742 16.3315 11.2159 16.0588 10.5294 16.0588H5.35294C4.6665 16.0588 4.00817 16.3315 3.52279 16.8169C3.0374 17.3023 2.76471 17.9606 2.76471 18.6471V19.9412" stroke="#333652" stroke-linecap="round" stroke-linejoin="round"/>
<path d="M7.9412 13.4706C9.37065 13.4706 10.5294 12.3118 10.5294 10.8824C10.5294 9.45292 9.37065 8.29413 7.9412 8.29413C6.51176 8.29413 5.35297 9.45292 5.35297 10.8824C5.35297 12.3118 6.51176 13.4706 7.9412 13.4706Z" stroke="#333652" stroke-linecap="round" stroke-linejoin="round"/>
<path d="M17 19.9412V18.6471C16.9996 18.0736 16.8087 17.5165 16.4574 17.0633C16.106 16.61 15.6141 16.2863 15.0588 16.1429" stroke="#333652" stroke-linecap="round" stroke-linejoin="round"/>
<path d="M12.4706 8.3783C13.0273 8.52084 13.5208 8.84463 13.8732 9.29861C14.2256 9.7526 14.4168 10.311 14.4168 10.8856C14.4168 11.4603 14.2256 12.0187 13.8732 12.4727C13.5208 12.9267 13.0273 13.2505 12.4706 13.393" stroke="#333652" stroke-linecap="round" stroke-linejoin="round"/>
</g>
<defs>
<clipPath id="clip0">
<rect width="15.5294" height="15.5294" fill="white" transform="translate(2.11768 6.35297)"/>
</clipPath>
</defs>
</svg>
