<svg width="139" height="28" viewBox="0 0 139 28" fill="none" xmlns="http://www.w3.org/2000/svg">
<path d="M28.4997 23V5.648H34.6557C35.9037 5.648 37.0197 5.864 38.0037 6.296C38.9877 6.72 39.7637 7.348 40.3317 8.18C40.9077 9.012 41.1957 10.036 41.1957 11.252C41.1957 12.396 40.9397 13.376 40.4277 14.192C39.9157 15.008 39.1957 15.632 38.2677 16.064C37.3477 16.496 36.2717 16.712 35.0397 16.712H31.4637V23H28.4997ZM31.4397 14.372H34.9677C35.9837 14.372 36.8117 14.068 37.4517 13.46C38.0997 12.852 38.4237 12.06 38.4237 11.084C38.4237 10.092 38.0877 9.324 37.4157 8.78C36.7437 8.228 35.8997 7.952 34.8837 7.952H31.4397V14.372ZM46.4259 23.24C45.2339 23.24 44.2459 22.92 43.4619 22.28C42.6779 21.632 42.2859 20.72 42.2859 19.544C42.2859 18.176 42.7779 17.144 43.7619 16.448C44.7539 15.752 46.3339 15.388 48.5019 15.356L50.3499 15.308V14.468C50.3499 13.812 50.1539 13.3 49.7619 12.932C49.3699 12.564 48.7699 12.38 47.9619 12.38C47.3539 12.388 46.8019 12.532 46.3059 12.812C45.8099 13.092 45.4819 13.552 45.3219 14.192H42.8379C42.9019 12.92 43.4099 11.964 44.3619 11.324C45.3219 10.676 46.5659 10.352 48.0939 10.352C49.8619 10.352 51.1459 10.7 51.9459 11.396C52.7539 12.084 53.1579 13.052 53.1579 14.3V23H50.6979L50.4699 20.768C50.0139 21.704 49.4459 22.352 48.7659 22.712C48.0859 23.064 47.3059 23.24 46.4259 23.24ZM47.3739 21.26C47.8539 21.26 48.3219 21.148 48.7779 20.924C49.2339 20.692 49.6099 20.396 49.9059 20.036C50.2019 19.676 50.3499 19.292 50.3499 18.884V16.928L48.8259 16.952C47.6979 16.968 46.7899 17.148 46.1019 17.492C45.4139 17.836 45.0699 18.42 45.0699 19.244C45.0699 19.876 45.2899 20.372 45.7299 20.732C46.1699 21.084 46.7179 21.26 47.3739 21.26ZM62.6638 12.656H59.8918L59.9038 19.772C59.9038 20.324 59.9998 20.668 60.1918 20.804C60.3838 20.932 60.7198 20.996 61.1998 20.996H62.7238V22.844C62.5638 22.908 62.3198 22.964 61.9918 23.012C61.6638 23.068 61.2318 23.096 60.6958 23.096C59.7118 23.096 58.9518 22.968 58.4158 22.712C57.8798 22.456 57.5038 22.088 57.2878 21.608C57.0798 21.12 56.9758 20.544 56.9758 19.88V12.656H54.9598V10.592H57.0598L57.7918 6.908H59.8918V10.58H62.6638V12.656ZM68.2366 5.66V8.42H65.3446V5.66H68.2366ZM68.2006 10.592V23H65.3926V10.592H68.2006ZM73.6863 17.468C73.6783 18.524 73.9343 19.392 74.4543 20.072C74.9823 20.744 75.7463 21.08 76.7463 21.08C77.4343 21.08 78.0303 20.928 78.5343 20.624C79.0463 20.312 79.3863 19.84 79.5543 19.208H82.2303C82.0783 20.072 81.7303 20.804 81.1863 21.404C80.6503 22.004 79.9943 22.46 79.2183 22.772C78.4503 23.084 77.6503 23.24 76.8183 23.24C75.6183 23.24 74.5623 22.988 73.6503 22.484C72.7463 21.972 72.0383 21.244 71.5263 20.3C71.0223 19.356 70.7703 18.232 70.7703 16.928C70.7703 15.656 71.0023 14.528 71.4663 13.544C71.9303 12.552 72.5983 11.772 73.4703 11.204C74.3423 10.636 75.3983 10.352 76.6383 10.352C78.4703 10.352 79.8663 10.924 80.8263 12.068C81.7863 13.204 82.2663 14.708 82.2663 16.58V17.468H73.6863ZM73.6863 15.656H79.5063C79.5063 14.76 79.2703 14.004 78.7983 13.388C78.3263 12.764 77.6023 12.452 76.6263 12.452C75.9863 12.452 75.4463 12.608 75.0063 12.92C74.5663 13.232 74.2343 13.636 74.0103 14.132C73.7863 14.62 73.6783 15.128 73.6863 15.656ZM84.6547 23V10.592H87.5107V12.368C87.7987 11.888 88.2427 11.448 88.8427 11.048C89.4507 10.648 90.2507 10.448 91.2427 10.448C92.0107 10.448 92.7227 10.6 93.3787 10.904C94.0427 11.208 94.5747 11.684 94.9747 12.332C95.3827 12.98 95.5867 13.816 95.5867 14.84V23H92.6587V15.188C92.6587 14.38 92.4307 13.776 91.9747 13.376C91.5267 12.976 90.9667 12.776 90.2947 12.776C89.5907 12.776 88.9587 12.952 88.3987 13.304C87.8467 13.656 87.5707 14.188 87.5707 14.9V23H84.6547ZM104.807 12.656H102.035L102.047 19.772C102.047 20.324 102.143 20.668 102.335 20.804C102.527 20.932 102.863 20.996 103.343 20.996H104.867V22.844C104.707 22.908 104.463 22.964 104.135 23.012C103.807 23.068 103.375 23.096 102.839 23.096C101.855 23.096 101.095 22.968 100.559 22.712C100.023 22.456 99.647 22.088 99.431 21.608C99.223 21.12 99.119 20.544 99.119 19.88V12.656H97.103V10.592H99.203L99.935 6.908H102.035V10.58H104.807V12.656Z" fill="#E9EAEC"/>
<path d="M107.776 5.648C107.848 5.648 108.056 5.648 108.4 5.648C108.752 5.648 109.172 5.648 109.66 5.648C110.148 5.648 110.64 5.652 111.136 5.66C111.632 5.66 112.068 5.664 112.444 5.672C115.612 5.736 117.904 6.512 119.32 8C120.736 9.488 121.444 11.564 121.444 14.228C121.444 17.012 120.696 19.172 119.2 20.708C117.704 22.236 115.392 23 112.264 23H107.776V5.648ZM110.74 8.06V20.588H112.312C113.504 20.588 114.556 20.384 115.468 19.976C116.38 19.56 117.092 18.888 117.604 17.96C118.124 17.032 118.384 15.792 118.384 14.24C118.384 12.736 118.144 11.532 117.664 10.628C117.184 9.724 116.496 9.072 115.6 8.672C114.704 8.264 113.632 8.06 112.384 8.06H110.74ZM124.435 23V5.648H130.399C132.599 5.648 134.243 6.04 135.331 6.824C136.427 7.6 136.975 8.72 136.975 10.184C136.975 11.072 136.747 11.84 136.291 12.488C135.835 13.136 135.031 13.684 133.879 14.132C134.815 14.356 135.535 14.688 136.039 15.128C136.551 15.56 136.903 16.052 137.095 16.604C137.295 17.156 137.395 17.728 137.395 18.32C137.395 19.904 136.843 21.08 135.739 21.848C134.643 22.616 132.943 23 130.639 23H124.435ZM127.351 13.04H130.891C131.427 13.04 131.943 12.96 132.439 12.8C132.943 12.64 133.355 12.38 133.675 12.02C133.995 11.652 134.155 11.164 134.155 10.556C134.155 9.692 133.823 9.044 133.159 8.612C132.503 8.18 131.659 7.964 130.627 7.964H127.351V13.04ZM127.351 20.672H130.675C131.899 20.672 132.831 20.452 133.471 20.012C134.111 19.564 134.431 18.92 134.431 18.08C134.431 17.168 134.091 16.496 133.411 16.064C132.731 15.624 131.891 15.404 130.891 15.404H127.351V20.672Z" fill="#FAD02C"/>
<rect x="4.23529" y="2" width="19.7647" height="19.7647" rx="2" fill="#FAD02C"/>
<rect x="2.11768" y="4.11768" width="19.7647" height="19.7647" rx="2" fill="#333652"/>
<rect y="6.23529" width="19.7647" height="19.7647" rx="2" fill="#E9EAEC"/>
<g clip-path="url(#clip0)">
<path d="M13.1177 21.9412V20.6471C13.1177 19.9606 12.845 19.3023 12.3596 18.8169C11.8742 18.3315 11.2159 18.0588 10.5294 18.0588H5.35294C4.6665 18.0588 4.00817 18.3315 3.52279 18.8169C3.0374 19.3023 2.76471 19.9606 2.76471 20.6471V21.9412" stroke="#333652" stroke-linecap="round" stroke-linejoin="round"/>
<path d="M7.9412 15.4706C9.37065 15.4706 10.5294 14.3118 10.5294 12.8824C10.5294 11.4529 9.37065 10.2941 7.9412 10.2941C6.51176 10.2941 5.35297 11.4529 5.35297 12.8824C5.35297 14.3118 6.51176 15.4706 7.9412 15.4706Z" stroke="#333652" stroke-linecap="round" stroke-linejoin="round"/>
<path d="M17 21.9412V20.6471C16.9996 20.0736 16.8087 19.5165 16.4574 19.0633C16.106 18.61 15.6141 18.2863 15.0588 18.1429" stroke="#333652" stroke-linecap="round" stroke-linejoin="round"/>
<path d="M12.4706 10.3783C13.0273 10.5208 13.5208 10.8446 13.8732 11.2986C14.2256 11.7526 14.4168 12.311 14.4168 12.8856C14.4168 13.4603 14.2256 14.0187 13.8732 14.4727C13.5208 14.9267 13.0273 15.2505 12.4706 15.393" stroke="#333652" stroke-linecap="round" stroke-linejoin="round"/>
</g>
<defs>
<clipPath id="clip0">
<rect width="15.5294" height="15.5294" fill="white" transform="translate(2.11768 8.35297)"/>
</clipPath>
</defs>
</svg>
