<svg width="66" height="67" viewBox="0 0 66 67" fill="none" xmlns="http://www.w3.org/2000/svg">
<g clip-path="url(#clip0)">
<path d="M27.8252 30.8799L51.6554 30.8373C51.698 30.8373 51.7388 30.8204 51.7689 30.7902C51.799 30.7601 51.816 30.7191 51.816 30.6765C51.816 30.6338 51.799 30.5929 51.7689 30.5628C51.7388 30.5326 51.698 30.5157 51.6554 30.5157L27.8252 30.5582C27.7826 30.5582 27.7417 30.5752 27.7116 30.6054C27.6815 30.6355 27.6646 30.6764 27.6646 30.7191C27.6646 30.7617 27.6815 30.8026 27.7116 30.8328C27.7417 30.863 27.7826 30.8799 27.8252 30.8799V30.8799Z" fill="#3F3D56"/>
<path d="M27.4692 33.1316C28.7111 33.1316 29.7178 32.1235 29.7178 30.8799C29.7178 29.6363 28.7111 28.6282 27.4692 28.6282C26.2274 28.6282 25.2207 29.6363 25.2207 30.8799C25.2207 32.1235 26.2274 33.1316 27.4692 33.1316Z" fill="#3F3D56"/>
<path d="M50.5873 30.8685C47.5389 30.8685 44.559 29.9633 42.0244 28.2674C39.4897 26.5714 37.5142 24.1609 36.3477 21.3407C35.1811 18.5204 34.8759 15.4171 35.4706 12.4232C36.0653 9.42923 37.5332 6.67911 39.6887 4.5206C41.8443 2.36208 44.5906 0.892106 47.5804 0.296572C50.5702 -0.298962 53.6692 0.00668779 56.4855 1.17487C59.3018 2.34305 61.709 4.3213 63.4025 6.85945C65.0961 9.3976 66.0001 12.3817 66.0001 15.4343C65.9954 19.5263 64.3701 23.4493 61.4807 26.3428C58.5912 29.2363 54.6736 30.8639 50.5873 30.8685V30.8685ZM50.5873 1.06444C47.7491 1.06444 44.9747 1.90721 42.6149 3.48619C40.2551 5.06517 38.4158 7.30942 37.3297 9.93517C36.2436 12.5609 35.9594 15.4502 36.5131 18.2377C37.0668 21.0251 38.4335 23.5856 40.4404 25.5953C42.4472 27.6049 45.0041 28.9735 47.7877 29.528C50.5713 30.0824 53.4566 29.7979 56.0787 28.7102C58.7008 27.6226 60.9419 25.7808 62.5187 23.4177C64.0955 21.0546 64.9371 18.2763 64.9371 15.4343C64.9328 11.6245 63.4195 7.97196 60.7294 5.27804C58.0392 2.58411 54.3917 1.06876 50.5873 1.06444V1.06444Z" fill="#3F3D56"/>
<path d="M57.2376 21.6185C56.6735 21.6188 56.1219 21.4517 55.6527 21.1381C55.1834 20.8246 54.8175 20.3788 54.6013 19.857C54.385 19.3352 54.3282 18.7609 54.4379 18.2068C54.5475 17.6526 54.8189 17.1435 55.2175 16.7438C55.6161 16.3441 56.1242 16.0717 56.6774 15.9611C57.2306 15.8505 57.8042 15.9067 58.3255 16.1225C58.8469 16.3384 59.2926 16.7041 59.6063 17.1736C59.9201 17.6431 60.0877 18.1953 60.0881 18.7602C60.0883 19.5176 59.7882 20.2442 59.2537 20.7801C58.7192 21.3161 57.994 21.6176 57.2376 21.6185V21.6185ZM50.5872 21.6185C49.8315 21.6176 49.107 21.3166 48.5726 20.7815C48.0382 20.2464 47.7376 19.5209 47.7368 18.7641V12.1044C47.7368 11.3474 48.0371 10.6213 48.5717 10.086C49.1062 9.55073 49.8312 9.25 50.5872 9.25C51.3432 9.25 52.0682 9.55073 52.6028 10.086C53.1373 10.6213 53.4377 11.3474 53.4377 12.1044V18.7641C53.4368 19.5209 53.1362 20.2464 52.6018 20.7815C52.0674 21.3166 51.3429 21.6176 50.5872 21.6185V21.6185ZM43.9387 21.6185C43.1824 21.6176 42.4574 21.3164 41.9227 20.7809C41.3879 20.2454 41.0872 19.5194 41.0863 18.7621V16.1013C41.0863 15.3437 41.3868 14.6172 41.9218 14.0815C42.4567 13.5459 43.1822 13.2449 43.9387 13.2449C44.6952 13.2449 45.4207 13.5459 45.9557 14.0815C46.4906 14.6172 46.7911 15.3437 46.7911 16.1013V18.7621C46.7902 19.5194 46.4895 20.2454 45.9547 20.7809C45.4199 21.3164 44.6949 21.6176 43.9387 21.6185Z" fill="#6C63FF"/>
<path d="M4.1532 53.2353V53.4941C4.15357 53.9231 4.3239 54.3344 4.6268 54.6377C4.9297 54.941 5.34042 55.1116 5.76878 55.112H19.4689C19.8974 55.1118 20.3082 54.9413 20.6112 54.638C20.9141 54.3346 21.0844 53.9232 21.0845 53.4941V53.2353C21.0853 52.8567 20.9526 52.49 20.7097 52.1999C20.6288 52.1036 20.5373 52.0167 20.437 51.941H13.331C13.2453 51.941 13.1631 51.9069 13.1025 51.8462C13.0419 51.7856 13.0079 51.7033 13.0079 51.6175H5.76879C5.34049 51.6181 4.9299 51.7887 4.62705 52.092C4.32419 52.3952 4.15379 52.8064 4.1532 53.2353Z" fill="#3F3D56"/>
<path d="M11.7148 66.955H13.395L13.395 55.0477H11.7148L11.7148 66.955Z" fill="#3F3D56"/>
<path d="M6.93262 66.8958C6.93262 67.0776 9.47871 66.9662 12.6195 66.9662C15.7602 66.9662 18.3063 67.0776 18.3063 66.8958C18.3063 66.7141 15.7602 65.2724 12.6195 65.2724C9.47871 65.2724 6.93262 66.7141 6.93262 66.8958Z" fill="#3F3D56"/>
<path d="M6.78978 52.9622L12.5231 53.8786L19.1845 54.9437L21.4942 55.3126C21.7159 55.3476 21.9425 55.2932 22.1242 55.1612C22.3059 55.0292 22.4279 54.8305 22.4635 54.6085L22.5682 53.9536L22.6652 53.344L22.7453 52.8419C22.7634 52.7296 22.7585 52.6148 22.731 52.5044C22.7034 52.394 22.6538 52.2904 22.585 52.1999C22.5038 52.0885 22.3957 51.9995 22.2709 51.941H13.3309C13.2452 51.941 13.1631 51.9069 13.1025 51.8462C13.0419 51.7856 13.0079 51.7033 13.0078 51.6175V51.3625C13.0079 51.2767 13.0419 51.1944 13.1025 51.1337C13.1631 51.0731 13.2452 51.039 13.3309 51.0389H16.8439L15.2244 50.7801L10.2458 49.9841L7.33907 49.5195C7.11682 49.4842 6.88966 49.5387 6.70745 49.6709C6.52524 49.8031 6.40285 50.0024 6.36714 50.2248L6.08536 51.9902C6.05096 52.2125 6.1057 52.4394 6.23764 52.6215C6.36959 52.8036 6.56805 52.926 6.78978 52.9622Z" fill="#6C63FF"/>
<path d="M19.1846 52.7163V62.5799C19.1849 62.8046 19.2742 63.0201 19.4329 63.179C19.5916 63.3379 19.8067 63.4273 20.0311 63.4277H21.8186C22.043 63.4273 22.2582 63.3379 22.4169 63.179C22.5756 63.0201 22.6649 62.8047 22.6652 62.5799V52.7163C22.6655 52.5292 22.6032 52.3474 22.4881 52.1999C22.4029 52.0866 22.2898 51.9974 22.1598 51.941H19.6886C19.5592 51.9977 19.4466 52.0869 19.3616 52.1999C19.2468 52.3475 19.1845 52.5292 19.1846 52.7163V52.7163Z" fill="#6C63FF"/>
<path d="M13.7976 36.0216C13.8066 36.1095 13.8293 36.1956 13.8648 36.2765C13.9186 36.4002 14.0015 36.509 14.1065 36.5936L14.1104 36.5962L19.2105 40.7392L19.2854 40.7987L20.3414 41.6568L20.6606 41.9157H26.1833L25.8653 41.6568L21.5007 38.1105L18.5758 35.7343L16.2998 33.886C16.1666 33.7773 16.0033 33.7123 15.8319 33.6997C15.8313 33.6989 15.8303 33.6985 15.8293 33.6984C15.7785 33.6947 15.7275 33.6956 15.6768 33.7009C15.601 33.7086 15.5266 33.7269 15.4558 33.7553C15.4074 33.7728 15.3614 33.7963 15.3188 33.8252C15.2384 33.8743 15.1672 33.9369 15.1081 34.0103L13.9992 35.3783L13.9824 35.4003C13.9121 35.4865 13.8596 35.5858 13.8278 35.6924C13.7961 35.799 13.7858 35.9109 13.7976 36.0216V36.0216Z" fill="#6C63FF"/>
<path d="M14.1103 36.5962C14.2064 36.8368 14.3462 37.0576 14.5226 37.2472L17.9179 40.8996C18 40.9751 18.0961 41.0336 18.2008 41.0718C18.3055 41.11 18.4167 41.1271 18.528 41.1222C18.6393 41.1173 18.7485 41.0904 18.8494 41.0431C18.9503 40.9958 19.0409 40.929 19.116 40.8466L19.2104 40.7391L19.2517 40.6926L20.7187 39.045L21.3494 38.3357C21.3914 38.292 21.4278 38.2433 21.458 38.1907C21.4735 38.1648 21.4877 38.1377 21.5006 38.1105C21.5535 37.9895 21.5778 37.858 21.5717 37.7261C21.5674 37.6139 21.5406 37.5037 21.4928 37.4021C21.4451 37.3004 21.3774 37.2095 21.2938 37.1346L17.357 34.1216C16.9226 33.788 16.3757 33.6367 15.8319 33.6996C15.8312 33.6989 15.8303 33.6984 15.8293 33.6983C15.7085 33.7135 15.5892 33.7386 15.4725 33.7734C15.4208 33.7877 15.3705 33.8058 15.3187 33.8252C14.985 33.9509 14.689 34.1604 14.4593 34.4335C14.2093 34.7276 14.0446 35.0847 13.9831 35.466C13.9216 35.8473 13.9656 36.2382 14.1103 36.5962V36.5962Z" fill="#2F2E41"/>
<path d="M12.4981 30.6917C16.0759 30.6917 18.9763 27.7873 18.9763 24.2045C18.9763 20.6218 16.0759 17.7174 12.4981 17.7174C8.92037 17.7174 6.02002 20.6218 6.02002 24.2045C6.02002 27.7873 8.92037 30.6917 12.4981 30.6917Z" fill="#6C63FF"/>
<path d="M10.7732 52.0679L13.1759 52.451L13.2302 52.46L16.8827 53.0437L19.1846 53.4126L22.5683 53.9536L22.6652 53.9692L23.168 54.0494L25.4776 54.4182C25.6993 54.4533 25.9259 54.3988 26.1076 54.2669C26.2893 54.1349 26.4114 53.9361 26.447 53.7142L26.6486 52.451L26.7287 51.9488C26.7287 51.9462 26.73 51.9436 26.73 51.941H13.331C13.2453 51.941 13.1631 51.9069 13.1026 51.8462C13.042 51.7855 13.0079 51.7033 13.0079 51.6175V51.3625C13.0079 51.2767 13.042 51.1944 13.1026 51.1337C13.1631 51.0731 13.2453 51.039 13.331 51.0389H17.5651V49.6243L17.3066 49.5829L16.0297 49.3784L11.3212 48.6264C11.0993 48.5911 10.8725 48.6454 10.6905 48.7774C10.5085 48.9094 10.3862 49.1083 10.3506 49.3305L10.2459 49.9841L10.0688 51.0972C10.0341 51.3194 10.0887 51.5463 10.2208 51.7282C10.3528 51.9102 10.5514 52.0323 10.7732 52.0679V52.0679Z" fill="#6C63FF"/>
<path d="M3.6814 46.3369C3.6814 51.6252 4.21782 54.7884 12.4896 53.8824C12.5012 53.8812 12.5116 53.8799 12.5232 53.8786C13.9985 53.7326 15.4577 53.4532 16.8827 53.0438C17.6232 52.8272 18.343 52.5448 19.0334 52.1999C19.1962 52.1171 19.3526 52.0304 19.5064 51.941H13.331C13.2453 51.941 13.1631 51.9069 13.1025 51.8462C13.0419 51.7856 13.0079 51.7033 13.0079 51.6175V51.3625C13.0079 51.2767 13.0419 51.1944 13.1025 51.1338C13.1631 51.0731 13.2453 51.039 13.331 51.0389H17.5651V42.8644C17.5654 42.6129 17.6654 42.3718 17.843 42.1939C18.0206 42.0161 18.2613 41.916 18.5125 41.9157H21.9569C21.9272 41.8302 21.8975 41.7435 21.8652 41.6568C21.542 40.7614 21.159 39.8888 20.7188 39.045C20.1156 37.8731 19.3978 36.7641 18.5758 35.7342C18.0035 35.0166 17.3609 34.358 16.6578 33.7683C15.3614 32.6966 13.9501 32.0339 12.518 32.0339C7.23701 32.0339 3.6814 41.0485 3.6814 46.3369Z" fill="#2F2E41"/>
<path d="M12.3621 26.6089L12.3553 26.3665C12.8057 26.3539 13.2028 26.3256 13.5011 26.1074C13.5857 26.042 13.6552 25.9591 13.705 25.8644C13.7547 25.7697 13.7835 25.6653 13.7894 25.5585C13.7946 25.4932 13.7847 25.4276 13.7605 25.3667C13.7363 25.3059 13.6985 25.2514 13.6498 25.2076C13.4518 25.0401 13.1331 25.0943 12.9008 25.201L12.7005 25.293L13.0846 22.482L13.3245 22.5149L12.9977 24.906C13.3133 24.8131 13.6058 24.8531 13.8061 25.0225C13.883 25.0897 13.9433 25.1739 13.9824 25.2683C14.0215 25.3628 14.0382 25.465 14.0313 25.567C14.0242 25.7106 13.9859 25.8508 13.919 25.978C13.852 26.1052 13.7582 26.2161 13.6439 26.3031C13.2606 26.5837 12.7624 26.5976 12.3621 26.6089Z" fill="#2F2E41"/>
<path d="M15.8144 22.7211H14.5106V22.9636H15.8144V22.7211Z" fill="#2F2E41"/>
<path d="M11.6988 22.7211H10.395V22.9636H11.6988V22.7211Z" fill="#2F2E41"/>
<path d="M7.32806 22.4221C7.83188 21.6627 8.7184 21.3408 9.59259 21.2624C10.5766 21.1743 11.5273 21.3643 12.488 21.5489C13.5453 21.7521 14.6643 21.9422 15.7297 21.6853C16.201 21.5761 16.6414 21.3612 17.0176 21.0568C17.3939 20.7524 17.6963 20.3664 17.9019 19.928C18.292 19.0726 18.3761 18.1087 18.1399 17.1985C17.8903 16.2305 17.2706 15.3787 16.5194 14.7354C14.9862 13.4223 12.9114 12.8322 10.9157 12.8878C8.92767 12.9392 7.00615 13.6158 5.42346 14.8217C3.83813 16.0711 2.72255 17.8218 2.2588 19.7879C1.77387 21.7379 1.93184 23.7926 2.70913 25.6453C3.14583 26.6598 3.77741 27.5743 4.26477 28.5633C4.71853 29.484 5.06799 30.5545 4.78566 31.5815C4.53791 32.4827 3.81056 33.2833 2.89744 33.528C2.48199 33.6371 2.04239 33.6083 1.64474 33.4457C1.24709 33.2831 0.912906 32.9957 0.692447 32.6266C0.23598 31.9058 0.225058 30.9617 0.910417 30.3797C1.08322 30.2306 1.28451 30.1182 1.50205 30.0493C1.71959 29.9805 1.94883 29.9567 2.17584 29.9794C2.40285 30.0021 2.62288 30.0708 2.82255 30.1813C3.02223 30.2918 3.19737 30.4418 3.33733 30.6222C3.61537 30.9839 3.73983 31.4407 3.68371 31.8936C3.64995 32.1226 3.99979 32.2213 4.03387 31.9903C4.11565 31.5113 4.02496 31.0188 3.77795 30.6005C3.53094 30.1822 3.14365 29.8653 2.68509 29.7063C2.22653 29.5473 1.72648 29.5564 1.27404 29.7321C0.821602 29.9079 0.446155 30.2387 0.214593 30.6658C-0.198717 31.444 0.0242882 32.3826 0.548944 33.0477C0.819638 33.402 1.18653 33.6707 1.60574 33.8217C2.02495 33.9726 2.47871 33.9995 2.91273 33.8989C3.86775 33.6781 4.649 32.918 5.01641 32.0248C5.42543 31.0304 5.23803 29.9207 4.83929 28.9558C4.40827 27.9127 3.7682 26.9772 3.26203 25.9721C2.80371 25.0637 2.51206 24.0803 2.40097 23.0687C2.17864 21.0373 2.63906 18.9896 3.70937 17.2497C4.8003 15.5367 6.46544 14.2695 8.40565 13.6755C10.3188 13.0741 12.4288 13.0926 14.302 13.8316C16.1471 14.5597 17.9288 16.1462 17.9074 18.2771C17.8983 19.1873 17.5609 20.1156 16.8646 20.7227C16.0325 21.4483 14.874 21.5103 13.828 21.3971C12.7754 21.2831 11.7532 20.9753 10.6961 20.8968C9.7766 20.8285 8.7846 20.8995 7.9636 21.3569C7.58127 21.5704 7.25577 21.8728 7.01451 22.2386C6.88483 22.4341 7.1992 22.6164 7.32806 22.4221V22.4221Z" fill="#2F2E41"/>
<path d="M8.35883 38.2995C8.36914 38.323 8.38077 38.3459 8.39366 38.3681C8.40666 38.3912 8.4209 38.4137 8.43632 38.4353L11.2694 42.5188L11.4891 42.8359L13.8001 46.1647L16.0296 49.3784L16.9317 50.6804C16.956 50.7159 16.9832 50.7492 17.0132 50.7801C17.1527 50.927 17.3403 51.0189 17.5418 51.0389H17.565V45.4852L17.3065 45.1125L14.4075 40.9346L11.294 36.4474C11.1658 36.2628 10.9697 36.1367 10.7487 36.0966C10.5278 36.0566 10.3 36.1059 10.1153 36.2338L9.16012 36.8978L8.64698 37.255C8.48476 37.368 8.36713 37.5343 8.3145 37.7251C8.26187 37.9159 8.27756 38.1191 8.35883 38.2995V38.2995Z" fill="#6C63FF"/>
<path d="M7.9155 38.1998L8.04342 38.4574L8.04474 38.4587L8.07965 38.5273L10.1566 42.656C10.2737 42.848 10.4619 42.9857 10.6802 43.0391C10.8984 43.0925 11.1289 43.0571 11.3212 42.9407L11.4556 42.8566L11.4891 42.8359L14.1672 41.1533C14.2628 41.0954 14.3459 41.019 14.4119 40.9287C14.4779 40.8384 14.5253 40.7359 14.5515 40.6271C14.5777 40.5183 14.5821 40.4054 14.5645 40.2949C14.5469 40.1844 14.5076 40.0785 14.4489 39.9833L11.5073 35.9892C11.2189 35.5978 10.8048 35.3177 10.3345 35.1961C9.86423 35.0745 9.36647 35.1187 8.92492 35.3214C8.82527 35.3664 8.72933 35.4192 8.63797 35.4793C8.20561 35.7653 7.89318 36.2004 7.76 36.7019C7.62682 37.2034 7.68215 37.7365 7.9155 38.1998V38.1998Z" fill="#2F2E41"/>
<path d="M23.1678 51.941V61.6856C23.1682 61.9103 23.2575 62.1258 23.4162 62.2847C23.5749 62.4436 23.79 62.533 24.0145 62.5333H25.8019C26.0264 62.533 26.2415 62.4436 26.4002 62.2847C26.5589 62.1257 26.6482 61.9103 26.6485 61.6856V51.941H23.1678Z" fill="#6C63FF"/>
<path d="M12.7494 51.3625V51.6175C12.7496 51.7522 12.7962 51.8828 12.8815 51.987C12.9668 52.0913 13.0854 52.1628 13.2173 52.1895C13.2353 52.1921 13.2534 52.196 13.2715 52.1973C13.2909 52.1986 13.3103 52.1999 13.331 52.1999H33.2557C33.5756 52.1998 33.8824 52.0726 34.1087 51.8462C34.3351 51.6198 34.4624 51.3127 34.4629 50.9923V42.8644C34.4624 42.544 34.3351 42.2369 34.1087 42.0105C33.8824 41.7841 33.5756 41.6569 33.2557 41.6568H18.5125C18.1928 41.6572 17.8863 41.7845 17.6602 42.0109C17.4341 42.2373 17.307 42.5442 17.3066 42.8644V50.7801H13.331C13.1767 50.7801 13.0288 50.8415 12.9197 50.9507C12.8107 51.0599 12.7494 51.208 12.7494 51.3625Z" fill="white"/>
<path d="M12.7494 51.3625V51.6175C12.7496 51.7522 12.7962 51.8828 12.8815 51.987C12.9668 52.0913 13.0854 52.1628 13.2173 52.1895C13.2353 52.1921 13.2534 52.196 13.2715 52.1973C13.2909 52.1986 13.3103 52.1999 13.331 52.1999H33.2557C33.5756 52.1998 33.8824 52.0726 34.1087 51.8462C34.3351 51.6198 34.4624 51.3127 34.4629 50.9923V42.8644C34.4624 42.544 34.3351 42.2369 34.1087 42.0105C33.8824 41.7841 33.5756 41.6569 33.2557 41.6568H18.5125C18.1928 41.6572 17.8863 41.7845 17.6602 42.0109C17.4341 42.2373 17.307 42.5442 17.3066 42.8644V50.7801H13.331C13.1767 50.7801 13.0288 50.8415 12.9197 50.9507C12.8107 51.0599 12.7494 51.208 12.7494 51.3625ZM13.0079 51.6175V51.3625C13.0079 51.2767 13.042 51.1944 13.1026 51.1337C13.1631 51.0731 13.2453 51.039 13.331 51.0389H17.5651V42.8644C17.5655 42.6129 17.6654 42.3718 17.843 42.1939C18.0206 42.0161 18.2613 41.916 18.5125 41.9157H33.2557C33.5071 41.9158 33.7481 42.0157 33.9259 42.1936C34.1038 42.3714 34.2039 42.6127 34.2044 42.8644V50.9923C34.2039 51.244 34.1038 51.4853 33.9259 51.6631C33.7481 51.841 33.5071 51.9409 33.2557 51.941H13.331C13.2453 51.941 13.1631 51.9069 13.1026 51.8462C13.042 51.7855 13.0079 51.7033 13.0079 51.6175V51.6175Z" fill="#3F3D56"/>
<path d="M25.8846 47.9238C26.4335 47.9238 26.8785 47.4782 26.8785 46.9285C26.8785 46.3788 26.4335 45.9332 25.8846 45.9332C25.3356 45.9332 24.8906 46.3788 24.8906 46.9285C24.8906 47.4782 25.3356 47.9238 25.8846 47.9238Z" fill="#6C63FF"/>
<path d="M17.5689 50.9173H17.3104V52.0821H17.5689V50.9173Z" fill="#3F3D56"/>
</g>
<defs>
<clipPath id="clip0">
<rect width="66" height="67" fill="white"/>
</clipPath>
</defs>
</svg>
