<svg width="52" height="56" viewBox="0 0 52 56" fill="none" xmlns="http://www.w3.org/2000/svg">
<g clip-path="url(#clip0)">
<path d="M43.2514 21.0827H11.8356C11.5847 21.0825 11.3442 20.983 11.1668 20.8062C10.9894 20.6294 10.8896 20.3897 10.8893 20.1396V9.57667C10.8896 9.32662 10.9894 9.08691 11.1668 8.9101C11.3442 8.7333 11.5847 8.63383 11.8356 8.63354H43.2514C43.5022 8.63383 43.7428 8.73329 43.9202 8.9101C44.0976 9.0869 44.1973 9.32662 44.1976 9.57667V20.1396C44.1973 20.3897 44.0976 20.6294 43.9202 20.8062C43.7428 20.983 43.5022 21.0825 43.2514 21.0827V21.0827Z" fill="#3F3D56"/>
<path d="M24.1369 11.463H15.8098V12.4061H24.1369V11.463Z" fill="white"/>
<path d="M35.1135 12.5947C35.4271 12.5947 35.6813 12.3413 35.6813 12.0288C35.6813 11.7163 35.4271 11.463 35.1135 11.463C34.8 11.463 34.5458 11.7163 34.5458 12.0288C34.5458 12.3413 34.8 12.5947 35.1135 12.5947Z" fill="#6C63FF"/>
<path d="M37.006 12.5947C37.3196 12.5947 37.5738 12.3413 37.5738 12.0288C37.5738 11.7163 37.3196 11.463 37.006 11.463C36.6925 11.463 36.4383 11.7163 36.4383 12.0288C36.4383 12.3413 36.6925 12.5947 37.006 12.5947Z" fill="#6C63FF"/>
<path d="M38.8986 12.5947C39.2121 12.5947 39.4663 12.3413 39.4663 12.0288C39.4663 11.7163 39.2121 11.463 38.8986 11.463C38.585 11.463 38.3308 11.7163 38.3308 12.0288C38.3308 12.3413 38.585 12.5947 38.8986 12.5947Z" fill="#6C63FF"/>
<path d="M43.2514 34.4751H11.8356C11.5847 34.4748 11.3442 34.3754 11.1668 34.1986C10.9894 34.0218 10.8896 33.782 10.8893 33.532V22.969C10.8896 22.719 10.9894 22.4793 11.1668 22.3025C11.3442 22.1257 11.5847 22.0262 11.8356 22.0259H43.2514C43.5022 22.0262 43.7428 22.1257 43.9202 22.3025C44.0976 22.4793 44.1973 22.719 44.1976 22.969V33.532C44.1973 33.782 44.0976 34.0218 43.9202 34.1986C43.7428 34.3754 43.5022 34.4748 43.2514 34.4751V34.4751Z" fill="#3F3D56"/>
<path d="M24.1369 24.8553H15.8098V25.7984H24.1369V24.8553Z" fill="white"/>
<path d="M35.1135 25.987C35.4271 25.987 35.6813 25.7336 35.6813 25.4211C35.6813 25.1086 35.4271 24.8553 35.1135 24.8553C34.8 24.8553 34.5458 25.1086 34.5458 25.4211C34.5458 25.7336 34.8 25.987 35.1135 25.987Z" fill="#6C63FF"/>
<path d="M37.006 25.987C37.3196 25.987 37.5738 25.7336 37.5738 25.4211C37.5738 25.1086 37.3196 24.8553 37.006 24.8553C36.6925 24.8553 36.4383 25.1086 36.4383 25.4211C36.4383 25.7336 36.6925 25.987 37.006 25.987Z" fill="#6C63FF"/>
<path d="M38.8986 25.987C39.2121 25.987 39.4663 25.7336 39.4663 25.4211C39.4663 25.1086 39.2121 24.8553 38.8986 24.8553C38.585 24.8553 38.3308 25.1086 38.3308 25.4211C38.3308 25.7336 38.585 25.987 38.8986 25.987Z" fill="#6C63FF"/>
<path d="M43.2514 47.8674H11.8356C11.5847 47.8671 11.3442 47.7677 11.1668 47.5909C10.9894 47.4141 10.8896 47.1743 10.8893 46.9243V36.3613C10.8896 36.1113 10.9894 35.8716 11.1668 35.6948C11.3442 35.518 11.5847 35.4185 11.8356 35.4182H43.2514C43.5022 35.4185 43.7428 35.518 43.9202 35.6948C44.0976 35.8716 44.1973 36.1113 44.1976 36.3613V46.9243C44.1973 47.1743 44.0976 47.4141 43.9202 47.5909C43.7428 47.7677 43.5022 47.8671 43.2514 47.8674V47.8674Z" fill="#3F3D56"/>
<path d="M24.1369 38.2476H15.8098V39.1907H24.1369V38.2476Z" fill="white"/>
<path d="M35.1135 39.3793C35.4271 39.3793 35.6813 39.126 35.6813 38.8135C35.6813 38.5009 35.4271 38.2476 35.1135 38.2476C34.8 38.2476 34.5458 38.5009 34.5458 38.8135C34.5458 39.126 34.8 39.3793 35.1135 39.3793Z" fill="#6C63FF"/>
<path d="M37.006 39.3793C37.3196 39.3793 37.5738 39.126 37.5738 38.8135C37.5738 38.5009 37.3196 38.2476 37.006 38.2476C36.6925 38.2476 36.4383 38.5009 36.4383 38.8135C36.4383 39.126 36.6925 39.3793 37.006 39.3793Z" fill="#6C63FF"/>
<path d="M38.8986 39.3793C39.2121 39.3793 39.4663 39.126 39.4663 38.8135C39.4663 38.5009 39.2121 38.2476 38.8986 38.2476C38.585 38.2476 38.3308 38.5009 38.3308 38.8135C38.3308 39.126 38.585 39.3793 38.8986 39.3793Z" fill="#6C63FF"/>
<path d="M31.7943 56.0656H0V43.5722H0.378503V55.6883H31.7943V56.0656Z" fill="#CCCCCC"/>
<path d="M19.8715 0H51.6657V12.4933H51.2872V0.377249H19.8715V0Z" fill="#CCCCCC"/>
</g>
<defs>
<clipPath id="clip0">
<rect width="52" height="56" fill="white"/>
</clipPath>
</defs>
</svg>
